<svg id="Layer_1" data-name="Layer 1" xmlns="http://www.w3.org/2000/svg" viewBox="0 0 24 24"><defs><style>.cls-1{fill:#e50000;}.cls-2{fill:none;stroke:#e50000;stroke-linecap:round;stroke-miterlimit:10;stroke-width:2px;}</style></defs><path class="cls-1" d="M10.29,1.57,6.73,5.85,5.85,6.9l-.18,0H2.22A1.93,1.93,0,0,0,.29,8.81v6.38a1.93,1.93,0,0,0,1.93,1.93H5.67l.18,0,.88,1,3.56,4.28a.89.89,0,0,0,1.57-.57V2.14A.89.89,0,0,0,10.29,1.57Z"/><path class="cls-2" d="M15.39,8.15a3.85,3.85,0,0,1,0,7.7"/><path class="cls-2" d="M15.39,4.65a7.35,7.35,0,0,1,0,14.7"/></svg>